<svg xmlns="http://www.w3.org/2000/svg" xmlns:xlink="http://www.w3.org/1999/xlink" width="500" zoomAndPan="magnify" viewBox="0 0 375 374.999991" height="500" preserveAspectRatio="xMidYMid meet" version="1.0"><defs><g/><clipPath id="7da025aa69"><path d="M 182 212 L 186 212 L 186 217.511719 L 182 217.511719 Z M 182 212 " clip-rule="nonzero"/></clipPath><clipPath id="02f9c354ce"><path d="M 171 212 L 175 212 L 175 217.511719 L 171 217.511719 Z M 171 212 " clip-rule="nonzero"/></clipPath><clipPath id="1901408026"><path d="M 165.835938 174.011719 L 209.335938 174.011719 L 209.335938 217.511719 L 165.835938 217.511719 Z M 165.835938 174.011719 " clip-rule="nonzero"/></clipPath><clipPath id="447e90a227"><path d="M 106 166 L 268.710938 166 L 268.710938 187.34375 L 106 187.34375 Z M 106 166 " clip-rule="nonzero"/></clipPath><clipPath id="db8d397e7c"><path d="M 144 54.59375 L 180 54.59375 L 180 169 L 144 169 Z M 144 54.59375 " clip-rule="nonzero"/></clipPath></defs><g clip-path="url(#7da025aa69)"><path fill="#ffffff" d="M 182.464844 212.25 L 182.464844 217.320312 L 184.492188 217.320312 C 184.523438 217.320312 184.558594 217.320312 184.59375 217.320312 C 184.625 217.320312 184.660156 217.320312 184.660156 217.320312 C 184.796875 217.320312 184.929688 217.285156 185.03125 217.21875 C 185.335938 217.015625 185.402344 216.578125 185.199219 216.273438 Z M 182.464844 212.25 " fill-opacity="1" fill-rule="nonzero"/></g><g clip-path="url(#02f9c354ce)"><path fill="#ffffff" d="M 171.785156 217.183594 C 171.886719 217.253906 172.019531 217.320312 172.15625 217.320312 C 172.191406 217.320312 172.222656 217.320312 172.222656 217.320312 C 172.257812 217.320312 172.292969 217.320312 172.324219 217.320312 L 174.351562 217.320312 L 174.351562 212.25 L 171.582031 216.273438 C 171.378906 216.578125 171.480469 216.980469 171.785156 217.183594 Z M 171.785156 217.183594 " fill-opacity="1" fill-rule="nonzero"/></g><g clip-path="url(#1901408026)"><path fill="#ffffff" d="M 209.160156 184.167969 C 209.160156 184.132812 209.160156 184.132812 209.160156 184.101562 C 209.160156 184.066406 209.160156 184.066406 209.160156 184.03125 C 209.160156 184 209.160156 184 209.128906 183.964844 C 209.128906 183.929688 209.128906 183.929688 209.09375 183.898438 C 209.09375 183.863281 209.058594 183.863281 209.058594 183.828125 C 209.058594 183.796875 209.027344 183.796875 209.027344 183.761719 C 209.027344 183.761719 209.027344 183.730469 208.992188 183.730469 L 205.714844 179.84375 C 205.613281 179.605469 205.410156 179.46875 205.140625 179.4375 L 180.234375 174.0625 C 180.132812 174.03125 180.03125 174.03125 179.929688 174.0625 C 179.894531 174.0625 179.828125 174.0625 179.761719 174.0625 L 177.058594 174.0625 C 176.988281 174.0625 176.921875 174.0625 176.855469 174.097656 C 176.71875 174.0625 176.550781 174.0625 176.414062 174.132812 L 166.277344 179.539062 C 165.972656 179.707031 165.835938 180.078125 165.972656 180.417969 C 165.9375 180.550781 165.90625 180.6875 165.90625 180.824219 L 165.90625 183.527344 C 165.90625 184.269531 166.511719 184.878906 167.257812 184.878906 L 175.703125 184.878906 L 175.703125 217.320312 L 181.113281 217.320312 L 181.113281 184.878906 L 196.65625 184.878906 L 196.65625 189.269531 L 195.304688 189.269531 C 195.070312 189.269531 194.832031 189.40625 194.695312 189.609375 C 194.597656 189.8125 194.597656 190.082031 194.695312 190.285156 L 196.625 193.394531 L 196.625 196.0625 C 195.472656 196.332031 194.597656 197.414062 194.597656 198.699219 C 194.597656 199.511719 194.933594 200.253906 195.507812 200.761719 L 191.25 203.125 C 191.015625 203.195312 190.777344 203.296875 190.609375 203.464844 L 190.574219 203.566406 C 190.304688 203.699219 190.167969 204.003906 190.238281 204.308594 C 190.238281 204.378906 190.203125 204.445312 190.203125 204.511719 L 190.203125 207.214844 C 190.203125 207.960938 190.8125 208.566406 191.554688 208.566406 L 202.367188 208.566406 C 203.113281 208.566406 203.71875 207.960938 203.71875 207.214844 L 203.71875 204.511719 C 203.71875 204.445312 203.71875 204.378906 203.6875 204.308594 C 203.753906 204.039062 203.617188 203.734375 203.347656 203.566406 L 203.316406 203.53125 C 203.144531 203.363281 202.910156 203.226562 202.671875 203.195312 L 198.683594 200.929688 C 198.886719 200.792969 199.058594 200.59375 199.226562 200.390625 C 199.460938 200.085938 199.394531 199.679688 199.089844 199.441406 C 198.785156 199.207031 198.378906 199.273438 198.144531 199.578125 C 197.90625 199.882812 197.570312 200.085938 197.199219 200.085938 C 196.523438 200.085938 195.980469 199.476562 195.980469 198.734375 C 195.980469 197.988281 196.523438 197.382812 197.199219 197.382812 C 197.230469 197.382812 197.230469 197.382812 197.265625 197.382812 C 197.300781 197.382812 197.300781 197.382812 197.332031 197.382812 C 197.703125 197.382812 198.007812 197.078125 198.007812 196.707031 L 198.007812 193.597656 L 199.933594 190.285156 C 200.070312 190.082031 200.070312 189.8125 199.933594 189.609375 C 199.832031 189.40625 199.597656 189.269531 199.359375 189.269531 L 198.007812 189.269531 L 198.007812 184.878906 L 208.484375 184.878906 C 208.519531 184.878906 208.585938 184.878906 208.621094 184.878906 C 208.621094 184.878906 208.652344 184.878906 208.652344 184.878906 C 208.6875 184.878906 208.722656 184.878906 208.722656 184.84375 C 208.753906 184.84375 208.753906 184.84375 208.753906 184.808594 C 208.789062 184.808594 208.789062 184.777344 208.824219 184.777344 C 208.824219 184.777344 208.855469 184.742188 208.855469 184.742188 C 208.855469 184.742188 208.890625 184.742188 208.890625 184.707031 C 208.890625 184.707031 208.890625 184.707031 208.925781 184.675781 C 208.957031 184.675781 208.957031 184.640625 208.957031 184.640625 C 208.957031 184.605469 208.992188 184.605469 208.992188 184.574219 C 208.992188 184.574219 209.027344 184.539062 209.027344 184.507812 C 209.027344 184.472656 209.058594 184.472656 209.058594 184.4375 C 209.058594 184.40625 209.058594 184.40625 209.09375 184.371094 C 209.128906 184.335938 209.09375 184.335938 209.128906 184.304688 C 209.128906 184.269531 209.128906 184.269531 209.128906 184.234375 C 209.128906 184.203125 209.128906 184.203125 209.128906 184.167969 C 209.128906 184.167969 209.128906 184.167969 209.128906 184.132812 C 209.160156 184.203125 209.160156 184.167969 209.160156 184.167969 Z M 167.257812 183.527344 L 167.257812 180.824219 L 169.519531 180.824219 Z M 170.972656 183.527344 L 169.046875 183.527344 L 170.972656 181.195312 Z M 172.324219 183.527344 L 172.324219 181.195312 L 174.25 183.527344 Z M 175.703125 183.152344 L 173.777344 180.824219 L 175.703125 180.824219 Z M 175.703125 179.46875 L 169.285156 179.46875 L 175.703125 176.058594 Z M 177.058594 177.238281 L 178.984375 179.46875 L 177.058594 179.46875 Z M 179.085938 182.175781 C 179.085938 182.546875 178.78125 182.851562 178.410156 182.851562 C 178.035156 182.851562 177.734375 182.546875 177.734375 182.175781 C 177.734375 181.800781 178.035156 181.5 178.410156 181.5 C 178.78125 181.5 179.085938 181.800781 179.085938 182.175781 Z M 177.058594 184.878906 L 178.984375 184.878906 L 177.058594 187.109375 Z M 177.058594 190.757812 L 178.984375 192.988281 L 177.058594 192.988281 Z M 177.058594 194.339844 L 178.679688 194.339844 L 177.058594 196.234375 Z M 177.058594 199.882812 L 179.253906 202.449219 L 177.058594 202.449219 Z M 177.058594 203.800781 L 178.984375 203.800781 L 177.058594 206.03125 Z M 177.058594 209.683594 L 178.984375 211.914062 L 177.058594 211.914062 Z M 179.761719 215.96875 L 177.058594 215.96875 L 177.058594 213.265625 L 179.761719 213.265625 Z M 179.761719 210.765625 L 177.832031 208.535156 L 179.761719 208.535156 Z M 179.761719 207.183594 L 177.832031 207.183594 L 179.761719 204.953125 Z M 179.761719 200.964844 L 178.136719 199.070312 L 179.761719 199.070312 Z M 179.761719 197.71875 L 177.5625 197.71875 L 179.761719 195.152344 Z M 179.761719 191.839844 L 177.832031 189.609375 L 179.761719 189.609375 Z M 179.761719 188.257812 L 177.832031 188.257812 L 179.761719 186.027344 Z M 179.761719 178.320312 L 177.257812 175.414062 L 179.761719 175.414062 Z M 196.996094 201.539062 L 199.867188 203.125 L 194.121094 203.125 Z M 181.113281 175.652344 L 198.753906 179.46875 L 181.113281 179.46875 Z M 181.113281 180.824219 L 183.039062 180.824219 L 181.113281 183.152344 Z M 184.492188 183.527344 L 182.566406 183.527344 L 184.492188 181.195312 Z M 185.84375 183.527344 L 185.84375 181.195312 L 187.769531 183.527344 Z M 189.558594 183.527344 L 187.296875 180.824219 L 189.558594 180.824219 Z M 190.914062 180.824219 L 192.839844 180.824219 L 190.914062 183.152344 Z M 194.292969 183.527344 L 192.367188 183.527344 L 194.292969 181.195312 Z M 195.644531 183.527344 L 195.644531 181.195312 L 197.570312 183.527344 Z M 199.023438 183.152344 L 197.097656 180.824219 L 199.023438 180.824219 Z M 200.375 180.824219 L 202.300781 180.824219 L 200.375 183.152344 Z M 203.753906 183.527344 L 201.828125 183.527344 L 203.753906 181.195312 Z M 205.105469 183.527344 L 205.105469 181.226562 L 207.03125 183.527344 Z M 205.105469 183.527344 " fill-opacity="1" fill-rule="nonzero"/></g><g clip-path="url(#447e90a227)"><path fill="#ffffff" d="M 106.09375 182.734375 C 141.285156 156.914062 230.726562 167.859375 268.875 180.101562 C 197.355469 166.015625 141.445312 163.742188 109.558594 187.507812 Z M 106.09375 182.734375 " fill-opacity="1" fill-rule="evenodd"/></g><g clip-path="url(#db8d397e7c)"><path fill="#ffffff" d="M 155.601562 168.097656 L 144.148438 83.640625 L 174.15625 54.59375 L 179.4375 166.992188 L 178.449219 166.984375 L 166.8125 69.132812 L 147.117188 85.234375 L 156.210938 168.042969 Z M 155.601562 168.097656 " fill-opacity="1" fill-rule="evenodd"/></g><path fill="#ffffff" d="M 201.976562 106.8125 L 202.621094 77.097656 L 182.839844 59.328125 L 198.316406 79.101562 L 198.722656 109.199219 Z M 201.976562 106.8125 " fill-opacity="1" fill-rule="evenodd"/><path fill="#ffffff" d="M 215.714844 169.386719 L 216.503906 141.742188 L 213.125 169.089844 Z M 196.066406 167.609375 L 194.816406 112.066406 L 218.441406 94.730469 L 217.0625 132.480469 L 213.832031 103.171875 L 197.527344 112.902344 L 196.503906 167.636719 Z M 196.066406 167.609375 " fill-opacity="1" fill-rule="evenodd"/><path fill="#ffffff" d="M 232.042969 173.757812 L 238.019531 109.671875 L 218.441406 94.730469 L 234.964844 110.554688 L 230.988281 173.605469 Z M 232.042969 173.757812 " fill-opacity="1" fill-rule="evenodd"/><g fill="#ffffff" fill-opacity="1"><g transform="translate(86.189956, 215.599966)"><g><path d="M 2.75 0 C 2.9375 -0.65625 3.09375 -1.484375 3.21875 -2.484375 C 3.34375 -3.484375 3.40625 -4.5625 3.40625 -5.71875 L 3.40625 -18.09375 C 3.40625 -20.488281 3.1875 -22.390625 2.75 -23.796875 L 8.90625 -23.796875 L 24.71875 -7.109375 L 25.15625 -7.109375 L 25.15625 -18.1875 C 25.15625 -19.363281 25.09375 -20.457031 24.96875 -21.46875 C 24.84375 -22.476562 24.703125 -23.253906 24.546875 -23.796875 L 31.078125 -23.796875 C 30.890625 -23.140625 30.738281 -22.3125 30.625 -21.3125 C 30.519531 -20.320312 30.46875 -19.25 30.46875 -18.09375 L 30.46875 0 L 25.609375 0 L 9.078125 -17.234375 L 8.671875 -17.234375 L 8.671875 -6.09375 C 8.671875 -4.90625 8.734375 -3.738281 8.859375 -2.59375 C 8.984375 -1.457031 9.125 -0.59375 9.28125 0 Z M 2.75 0 "/></g></g></g><g fill="#ffffff" fill-opacity="1"><g transform="translate(117.976073, 215.599966)"><g><path d="M 2.75 0 C 3.1875 -1.40625 3.40625 -3.3125 3.40625 -5.71875 L 3.40625 -18.09375 C 3.40625 -19.25 3.34375 -20.320312 3.21875 -21.3125 C 3.09375 -22.3125 2.9375 -23.140625 2.75 -23.796875 L 26.046875 -23.796875 L 26.890625 -18.671875 C 26.503906 -18.847656 25.929688 -18.992188 25.171875 -19.109375 C 24.410156 -19.222656 23.441406 -19.28125 22.265625 -19.28125 L 8.671875 -19.28125 L 8.671875 -14.140625 L 19.625 -14.140625 C 21.1875 -14.140625 22.375 -14.207031 23.1875 -14.34375 L 23.1875 -9.515625 C 22.375 -9.648438 21.1875 -9.71875 19.625 -9.71875 L 8.671875 -9.71875 L 8.671875 -4.515625 L 22.515625 -4.515625 C 23.847656 -4.515625 24.921875 -4.59375 25.734375 -4.75 C 26.554688 -4.914062 27.210938 -5.132812 27.703125 -5.40625 L 26.71875 0 Z M 2.75 0 "/></g></g></g><g fill="#ffffff" fill-opacity="1"><g transform="translate(145.104721, 215.599966)"><g><path d="M 14.75 0.46875 C 13.394531 0.46875 11.90625 0.363281 10.28125 0.15625 C 8.664062 -0.0390625 7.066406 -0.316406 5.484375 -0.671875 C 3.910156 -1.035156 2.503906 -1.457031 1.265625 -1.9375 L 1.5 -7.34375 C 3.289062 -6.207031 5.316406 -5.363281 7.578125 -4.8125 C 9.847656 -4.257812 12.207031 -3.984375 14.65625 -3.984375 C 16.8125 -3.984375 18.5625 -4.191406 19.90625 -4.609375 C 21.257812 -5.023438 21.9375 -5.753906 21.9375 -6.796875 C 21.9375 -7.410156 21.648438 -7.90625 21.078125 -8.28125 C 20.515625 -8.65625 19.75 -8.945312 18.78125 -9.15625 C 17.820312 -9.375 16.738281 -9.554688 15.53125 -9.703125 C 14.332031 -9.847656 13.097656 -10.007812 11.828125 -10.1875 C 10.554688 -10.375 9.320312 -10.617188 8.125 -10.921875 C 6.925781 -11.234375 5.84375 -11.648438 4.875 -12.171875 C 3.914062 -12.691406 3.148438 -13.363281 2.578125 -14.1875 C 2.015625 -15.019531 1.734375 -16.046875 1.734375 -17.265625 C 1.734375 -18.804688 2.289062 -20.09375 3.40625 -21.125 C 4.53125 -22.15625 6.046875 -22.9375 7.953125 -23.46875 C 9.859375 -24.007812 11.957031 -24.28125 14.25 -24.28125 C 15.539062 -24.28125 16.847656 -24.195312 18.171875 -24.03125 C 19.492188 -23.875 20.75 -23.65625 21.9375 -23.375 C 23.132812 -23.09375 24.175781 -22.757812 25.0625 -22.375 L 25.0625 -17.34375 C 23.8125 -18.0625 22.234375 -18.644531 20.328125 -19.09375 C 18.421875 -19.550781 16.460938 -19.78125 14.453125 -19.78125 C 13.179688 -19.78125 11.988281 -19.707031 10.875 -19.5625 C 9.769531 -19.414062 8.878906 -19.15625 8.203125 -18.78125 C 7.535156 -18.40625 7.203125 -17.878906 7.203125 -17.203125 C 7.203125 -16.566406 7.484375 -16.054688 8.046875 -15.671875 C 8.617188 -15.285156 9.382812 -14.984375 10.34375 -14.765625 C 11.3125 -14.554688 12.394531 -14.367188 13.59375 -14.203125 C 14.800781 -14.046875 16.046875 -13.882812 17.328125 -13.71875 C 18.609375 -13.550781 19.847656 -13.316406 21.046875 -13.015625 C 22.242188 -12.722656 23.320312 -12.328125 24.28125 -11.828125 C 25.25 -11.328125 26.015625 -10.675781 26.578125 -9.875 C 27.148438 -9.070312 27.4375 -8.054688 27.4375 -6.828125 C 27.4375 -5.316406 26.914062 -4.015625 25.875 -2.921875 C 24.832031 -1.835938 23.363281 -1 21.46875 -0.40625 C 19.570312 0.175781 17.332031 0.46875 14.75 0.46875 Z M 14.75 0.46875 "/></g></g></g><g fill="#ffffff" fill-opacity="1"><g transform="translate(171.830575, 215.599966)"><g/></g></g><g fill="#ffffff" fill-opacity="1"><g transform="translate(179.343477, 215.599966)"><g/></g></g><g fill="#ffffff" fill-opacity="1"><g transform="translate(186.856379, 215.599966)"><g/></g></g><g fill="#ffffff" fill-opacity="1"><g transform="translate(194.36928, 215.599966)"><g/></g></g><g fill="#ffffff" fill-opacity="1"><g transform="translate(201.889167, 215.599966)"><g><path d="M 7.453125 0.46875 C 6.203125 0.46875 4.945312 0.332031 3.6875 0.0625 C 2.425781 -0.207031 1.332031 -0.535156 0.40625 -0.921875 L 1.125 -5.4375 C 2.613281 -4.300781 4.5625 -3.734375 6.96875 -3.734375 C 9.1875 -3.734375 10.851562 -4.363281 11.96875 -5.625 C 13.082031 -6.882812 13.640625 -8.613281 13.640625 -10.8125 L 13.640625 -18.09375 C 13.640625 -19.25 13.582031 -20.320312 13.46875 -21.3125 C 13.351562 -22.3125 13.203125 -23.140625 13.015625 -23.796875 L 19.578125 -23.796875 C 19.148438 -22.390625 18.9375 -20.488281 18.9375 -18.09375 L 18.9375 -9.890625 C 18.9375 -6.398438 17.945312 -3.800781 15.96875 -2.09375 C 14 -0.382812 11.160156 0.46875 7.453125 0.46875 Z M 7.453125 0.46875 "/></g></g></g><g fill="#ffffff" fill-opacity="1"><g transform="translate(221.946623, 215.599966)"><g><path d="M 2.75 0 C 3.1875 -1.40625 3.40625 -3.3125 3.40625 -5.71875 L 3.40625 -18.09375 C 3.40625 -19.25 3.34375 -20.320312 3.21875 -21.3125 C 3.09375 -22.3125 2.9375 -23.140625 2.75 -23.796875 L 26.046875 -23.796875 L 26.890625 -18.671875 C 26.503906 -18.847656 25.929688 -18.992188 25.171875 -19.109375 C 24.410156 -19.222656 23.441406 -19.28125 22.265625 -19.28125 L 8.671875 -19.28125 L 8.671875 -14.140625 L 19.625 -14.140625 C 21.1875 -14.140625 22.375 -14.207031 23.1875 -14.34375 L 23.1875 -9.515625 C 22.375 -9.648438 21.1875 -9.71875 19.625 -9.71875 L 8.671875 -9.71875 L 8.671875 -4.515625 L 22.515625 -4.515625 C 23.847656 -4.515625 24.921875 -4.59375 25.734375 -4.75 C 26.554688 -4.914062 27.210938 -5.132812 27.703125 -5.40625 L 26.71875 0 Z M 2.75 0 "/></g></g></g><g fill="#ffffff" fill-opacity="1"><g transform="translate(249.07527, 215.599966)"><g><path d="M 2.75 0 C 2.9375 -0.65625 3.082031 -1.484375 3.1875 -2.484375 C 3.300781 -3.484375 3.359375 -4.5625 3.359375 -5.71875 L 3.359375 -18.09375 C 3.359375 -19.25 3.304688 -20.320312 3.203125 -21.3125 C 3.109375 -22.3125 2.957031 -23.140625 2.75 -23.796875 L 9.859375 -23.796875 L 16.5625 -11.734375 C 17.101562 -10.753906 17.601562 -9.820312 18.0625 -8.9375 C 18.53125 -8.050781 19.015625 -7.046875 19.515625 -5.921875 L 19.890625 -5.921875 C 20.390625 -7.023438 20.863281 -8.015625 21.3125 -8.890625 C 21.769531 -9.765625 22.28125 -10.710938 22.84375 -11.734375 L 29.578125 -23.796875 L 36.515625 -23.796875 C 36.304688 -23.140625 36.148438 -22.3125 36.046875 -21.3125 C 35.953125 -20.320312 35.90625 -19.25 35.90625 -18.09375 L 35.90625 -5.71875 C 35.90625 -4.5625 35.960938 -3.484375 36.078125 -2.484375 C 36.191406 -1.484375 36.335938 -0.65625 36.515625 0 L 29.984375 0 C 30.171875 -0.613281 30.316406 -1.445312 30.421875 -2.5 C 30.535156 -3.550781 30.59375 -4.664062 30.59375 -5.84375 L 30.59375 -17.171875 L 30.21875 -17.171875 L 20.5625 0 L 18.59375 0 L 8.9375 -17.171875 L 8.671875 -17.171875 L 8.671875 -5.84375 C 8.671875 -4.664062 8.734375 -3.550781 8.859375 -2.5 C 8.984375 -1.445312 9.125 -0.613281 9.28125 0 Z M 2.75 0 "/></g></g></g><g fill="#ffffff" fill-opacity="1"><g transform="translate(150.240969, 236.920794)"><g><path d="M 4.515625 0.21875 C 3.929688 0.21875 3.394531 0.117188 2.90625 -0.078125 C 2.414062 -0.285156 1.988281 -0.566406 1.625 -0.921875 C 1.269531 -1.285156 0.992188 -1.710938 0.796875 -2.203125 C 0.597656 -2.703125 0.5 -3.25 0.5 -3.84375 C 0.5 -4.4375 0.597656 -4.976562 0.796875 -5.46875 C 0.992188 -5.96875 1.269531 -6.398438 1.625 -6.765625 C 1.988281 -7.128906 2.414062 -7.410156 2.90625 -7.609375 C 3.394531 -7.816406 3.929688 -7.921875 4.515625 -7.921875 C 4.890625 -7.921875 5.234375 -7.878906 5.546875 -7.796875 C 5.867188 -7.710938 6.15625 -7.609375 6.40625 -7.484375 C 6.65625 -7.359375 6.875 -7.210938 7.0625 -7.046875 C 7.25 -6.878906 7.414062 -6.710938 7.5625 -6.546875 C 7.882812 -6.140625 8.132812 -5.679688 8.3125 -5.171875 L 7.3125 -5.171875 C 7.164062 -5.503906 6.96875 -5.804688 6.71875 -6.078125 C 6.613281 -6.179688 6.488281 -6.285156 6.34375 -6.390625 C 6.195312 -6.503906 6.03125 -6.601562 5.84375 -6.6875 C 5.664062 -6.78125 5.460938 -6.851562 5.234375 -6.90625 C 5.015625 -6.957031 4.773438 -6.984375 4.515625 -6.984375 C 4.066406 -6.984375 3.65625 -6.90625 3.28125 -6.75 C 2.914062 -6.601562 2.597656 -6.390625 2.328125 -6.109375 C 2.066406 -5.835938 1.859375 -5.507812 1.703125 -5.125 C 1.554688 -4.738281 1.484375 -4.3125 1.484375 -3.84375 C 1.484375 -3.375 1.554688 -2.945312 1.703125 -2.5625 C 1.859375 -2.175781 2.066406 -1.847656 2.328125 -1.578125 C 2.597656 -1.304688 2.914062 -1.09375 3.28125 -0.9375 C 3.65625 -0.789062 4.066406 -0.71875 4.515625 -0.71875 C 4.910156 -0.71875 5.273438 -0.78125 5.609375 -0.90625 C 5.941406 -1.03125 6.234375 -1.203125 6.484375 -1.421875 C 6.734375 -1.640625 6.9375 -1.890625 7.09375 -2.171875 C 7.257812 -2.460938 7.367188 -2.765625 7.421875 -3.078125 L 5.9375 -3.078125 L 5.9375 -4.015625 L 9.34375 -4.015625 L 9.34375 -3.078125 L 8.421875 -3.078125 C 8.304688 -2.597656 8.132812 -2.15625 7.90625 -1.75 C 7.6875 -1.34375 7.410156 -0.992188 7.078125 -0.703125 C 6.753906 -0.421875 6.375 -0.195312 5.9375 -0.03125 C 5.507812 0.132812 5.035156 0.21875 4.515625 0.21875 Z M 4.515625 0.21875 "/></g></g></g><g fill="#ffffff" fill-opacity="1"><g transform="translate(168.054413, 236.920794)"><g><path d="M 0.875 -7.703125 L 4.1875 -7.703125 C 4.625 -7.703125 5.015625 -7.640625 5.359375 -7.515625 C 5.710938 -7.390625 6.003906 -7.21875 6.234375 -7 C 6.472656 -6.78125 6.65625 -6.523438 6.78125 -6.234375 C 6.914062 -5.941406 6.984375 -5.625 6.984375 -5.28125 C 6.984375 -4.707031 6.804688 -4.210938 6.453125 -3.796875 C 6.097656 -3.378906 5.597656 -3.101562 4.953125 -2.96875 L 6.9375 0 L 5.78125 0 L 3.90625 -2.859375 L 1.875 -2.859375 L 1.875 0 L 0.875 0 Z M 4.1875 -3.796875 C 4.789062 -3.796875 5.242188 -3.929688 5.546875 -4.203125 C 5.847656 -4.484375 6 -4.84375 6 -5.28125 C 6 -5.71875 5.847656 -6.070312 5.546875 -6.34375 C 5.242188 -6.625 4.789062 -6.765625 4.1875 -6.765625 L 1.875 -6.765625 L 1.875 -3.796875 Z M 4.1875 -3.796875 "/></g></g></g><g fill="#ffffff" fill-opacity="1"><g transform="translate(183.944218, 236.920794)"><g><path d="M 4.515625 0.21875 C 3.929688 0.21875 3.394531 0.117188 2.90625 -0.078125 C 2.414062 -0.285156 1.988281 -0.566406 1.625 -0.921875 C 1.269531 -1.285156 0.992188 -1.710938 0.796875 -2.203125 C 0.597656 -2.703125 0.5 -3.25 0.5 -3.84375 C 0.5 -4.4375 0.597656 -4.976562 0.796875 -5.46875 C 0.992188 -5.96875 1.269531 -6.398438 1.625 -6.765625 C 1.988281 -7.128906 2.414062 -7.410156 2.90625 -7.609375 C 3.394531 -7.816406 3.929688 -7.921875 4.515625 -7.921875 C 5.085938 -7.921875 5.617188 -7.816406 6.109375 -7.609375 C 6.597656 -7.410156 7.019531 -7.128906 7.375 -6.765625 C 7.738281 -6.398438 8.019531 -5.96875 8.21875 -5.46875 C 8.425781 -4.976562 8.53125 -4.4375 8.53125 -3.84375 C 8.53125 -3.25 8.425781 -2.703125 8.21875 -2.203125 C 8.019531 -1.710938 7.738281 -1.285156 7.375 -0.921875 C 7.019531 -0.566406 6.597656 -0.285156 6.109375 -0.078125 C 5.617188 0.117188 5.085938 0.21875 4.515625 0.21875 Z M 4.515625 -0.71875 C 4.953125 -0.71875 5.351562 -0.789062 5.71875 -0.9375 C 6.09375 -1.09375 6.410156 -1.304688 6.671875 -1.578125 C 6.941406 -1.847656 7.148438 -2.175781 7.296875 -2.5625 C 7.453125 -2.945312 7.53125 -3.375 7.53125 -3.84375 C 7.53125 -4.3125 7.453125 -4.738281 7.296875 -5.125 C 7.148438 -5.507812 6.941406 -5.835938 6.671875 -6.109375 C 6.410156 -6.390625 6.09375 -6.601562 5.71875 -6.75 C 5.351562 -6.90625 4.953125 -6.984375 4.515625 -6.984375 C 4.066406 -6.984375 3.65625 -6.90625 3.28125 -6.75 C 2.914062 -6.601562 2.597656 -6.390625 2.328125 -6.109375 C 2.066406 -5.835938 1.859375 -5.507812 1.703125 -5.125 C 1.554688 -4.738281 1.484375 -4.3125 1.484375 -3.84375 C 1.484375 -3.375 1.554688 -2.945312 1.703125 -2.5625 C 1.859375 -2.175781 2.066406 -1.847656 2.328125 -1.578125 C 2.597656 -1.304688 2.914062 -1.09375 3.28125 -0.9375 C 3.65625 -0.789062 4.066406 -0.71875 4.515625 -0.71875 Z M 4.515625 -0.71875 "/></g></g></g><g fill="#ffffff" fill-opacity="1"><g transform="translate(201.317979, 236.920794)"><g><path d="M 3.84375 0.21875 C 3.394531 0.21875 2.984375 0.144531 2.609375 0 C 2.242188 -0.144531 1.925781 -0.351562 1.65625 -0.625 C 1.394531 -0.894531 1.191406 -1.222656 1.046875 -1.609375 C 0.898438 -1.992188 0.828125 -2.429688 0.828125 -2.921875 L 0.828125 -7.703125 L 1.8125 -7.703125 L 1.8125 -2.921875 C 1.8125 -2.566406 1.859375 -2.253906 1.953125 -1.984375 C 2.054688 -1.710938 2.195312 -1.484375 2.375 -1.296875 C 2.5625 -1.109375 2.78125 -0.960938 3.03125 -0.859375 C 3.28125 -0.765625 3.550781 -0.71875 3.84375 -0.71875 C 4.144531 -0.71875 4.421875 -0.765625 4.671875 -0.859375 C 4.921875 -0.960938 5.132812 -1.109375 5.3125 -1.296875 C 5.5 -1.484375 5.640625 -1.710938 5.734375 -1.984375 C 5.835938 -2.253906 5.890625 -2.566406 5.890625 -2.921875 L 5.890625 -7.703125 L 6.875 -7.703125 L 6.875 -2.921875 C 6.875 -2.429688 6.800781 -1.992188 6.65625 -1.609375 C 6.507812 -1.222656 6.300781 -0.894531 6.03125 -0.625 C 5.769531 -0.351562 5.453125 -0.144531 5.078125 0 C 4.710938 0.144531 4.300781 0.21875 3.84375 0.21875 Z M 3.84375 0.21875 "/></g></g></g><g fill="#ffffff" fill-opacity="1"><g transform="translate(217.372672, 236.920794)"><g><path d="M 0.875 -7.703125 L 4.125 -7.703125 C 4.5625 -7.703125 4.957031 -7.632812 5.3125 -7.5 C 5.664062 -7.375 5.96875 -7.195312 6.21875 -6.96875 C 6.46875 -6.75 6.65625 -6.484375 6.78125 -6.171875 C 6.914062 -5.859375 6.984375 -5.523438 6.984375 -5.171875 C 6.984375 -4.804688 6.914062 -4.46875 6.78125 -4.15625 C 6.65625 -3.851562 6.46875 -3.585938 6.21875 -3.359375 C 5.96875 -3.140625 5.664062 -2.960938 5.3125 -2.828125 C 4.957031 -2.703125 4.5625 -2.640625 4.125 -2.640625 L 1.875 -2.640625 L 1.875 0 L 0.875 0 Z M 4.125 -3.578125 C 4.726562 -3.578125 5.191406 -3.722656 5.515625 -4.015625 C 5.835938 -4.316406 6 -4.703125 6 -5.171875 C 6 -5.640625 5.835938 -6.019531 5.515625 -6.3125 C 5.191406 -6.613281 4.726562 -6.765625 4.125 -6.765625 L 1.875 -6.765625 L 1.875 -3.578125 Z M 4.125 -3.578125 "/></g></g></g></svg>